<?xml version="1.0" encoding="iso-8859-1"?>
<!-- Uploaded to: SVG Repo, www.svgrepo.com, Generator: SVG Repo Mixer Tools -->
<svg version="1.1" id="Layer_1" xmlns="http://www.w3.org/2000/svg" xmlns:xlink="http://www.w3.org/1999/xlink" 
	 viewBox="0 0 512 512" xml:space="preserve">
<rect y="92.126" style="fill:#AEADB3;" width="361.993" height="291.216"/>
<rect x="254.098" y="92.126" style="fill:#8B8892;" width="107.895" height="291.216"/>
<path style="fill:#0082D2;" d="M512,299.001v84.341H0V281.048h361.993V178.744h49.292c25.247,0,45.781,20.544,45.781,45.781v37.682
	h18.13C495.489,262.207,512,278.707,512,299.001z"/>
<path style="fill:#005C94;" d="M512,299.001v84.341H254.109V281.048h107.884V178.744h49.292c25.247,0,45.781,20.544,45.781,45.781
	v37.682h18.13C495.489,262.207,512,278.707,512,299.001z"/>
<path style="fill:#AEADB3;" d="M134.322,367.667c0,16.929-13.721,30.66-30.66,30.66c-16.929,0-30.649-13.731-30.649-30.66
	c0-16.929,13.721-30.649,30.649-30.649C120.602,337.018,134.322,350.738,134.322,367.667z"/>
<path style="fill:#8B8892;" d="M134.322,367.667c0,16.929-13.721,30.66-30.66,30.66v-61.309
	C120.602,337.018,134.322,350.738,134.322,367.667z"/>
<path style="fill:#2B292C;" d="M155.859,367.155c-0.272-28.528-23.627-51.685-52.197-51.685c-28.601,0-51.988,23.24-52.186,51.748
	l-0.01,0.449c0,28.789,23.418,52.207,52.197,52.207c28.789,0,52.207-23.418,52.207-52.207L155.859,367.155z M103.662,388.525
	c-11.422,0-20.732-9.248-20.847-20.649l0.01-0.303c0.042-11.443,9.394-20.753,20.837-20.753c11.453,0,20.806,9.311,20.847,20.753
	v0.084c0.01,0.073,0.01,0.136,0.01,0.199C124.416,379.266,115.105,388.525,103.662,388.525z"/>
<path style="fill:#17171A;" d="M155.87,367.667c0,28.789-23.418,52.207-52.207,52.207v-31.349c11.443,0,20.753-9.259,20.858-20.67
	c0-0.063,0-0.125-0.01-0.199v-0.084c-0.042-11.443-9.394-20.753-20.847-20.753v-31.35c28.57,0,51.925,23.157,52.197,51.685
	L155.87,367.667z"/>
<path style="fill:#AEADB3;" d="M440.85,367.667c0,16.929-13.721,30.66-30.66,30.66c-16.929,0-30.649-13.731-30.649-30.66
	c0-16.929,13.721-30.649,30.649-30.649C427.13,337.018,440.85,350.738,440.85,367.667z"/>
<path style="fill:#8B8892;" d="M440.85,367.667c0,16.929-13.721,30.66-30.66,30.66v-61.309
	C427.13,337.018,440.85,350.738,440.85,367.667z"/>
<path style="fill:#2B292C;" d="M462.387,367.155c-0.272-28.528-23.627-51.685-52.197-51.685c-28.601,0-51.988,23.24-52.186,51.748
	l-0.01,0.449c0,28.789,23.418,52.207,52.197,52.207c28.789,0,52.207-23.418,52.207-52.207L462.387,367.155z M410.19,388.525
	c-11.422,0-20.732-9.248-20.847-20.649l0.01-0.303c0.042-11.443,9.394-20.753,20.837-20.753c11.453,0,20.806,9.311,20.847,20.753
	v0.084c0.01,0.073,0.01,0.136,0.01,0.199C430.944,379.266,421.633,388.525,410.19,388.525z"/>
<path style="fill:#17171A;" d="M462.398,367.667c0,28.789-23.418,52.207-52.207,52.207v-31.349c11.443,0,20.753-9.259,20.858-20.67
	c0-0.063,0-0.125-0.01-0.199v-0.084c-0.042-11.443-9.394-20.753-20.847-20.753v-31.35c28.57,0,51.925,23.157,52.197,51.685
	L462.398,367.667z"/>
<path style="fill:#C8C6CD;" d="M383.054,263.796h47.994v-36.352c0-11.92-9.663-21.582-21.582-21.582h-26.412L383.054,263.796
	L383.054,263.796z"/>
</svg>